<?xml version="1.0" encoding="UTF-8" standalone="no"?>
<!-- Created with Inkscape (http://www.inkscape.org/) -->

<svg
   xmlns:dc="http://purl.org/dc/elements/1.1/"
   xmlns:cc="http://creativecommons.org/ns#"
   xmlns:rdf="http://www.w3.org/1999/02/22-rdf-syntax-ns#"
   xmlns:svg="http://www.w3.org/2000/svg"
   xmlns="http://www.w3.org/2000/svg"
   xmlns:sodipodi="http://sodipodi.sourceforge.net/DTD/sodipodi-0.dtd"
   xmlns:inkscape="http://www.inkscape.org/namespaces/inkscape"
   width="300"
   height="350"
   id="svg12566"
   version="1.1"
   inkscape:version="0.48.4 r9939"
   inkscape:export-filename="C:\Users\Panda\Desktop\socket\Clean\SOcket\assets\images\device.png"
   inkscape:export-xdpi="132.81636"
   inkscape:export-ydpi="132.81636"
   sodipodi:docname="drawing.svg">
  <defs
     id="defs12568" />
  <sodipodi:namedview
     id="base"
     pagecolor="#ffffff"
     bordercolor="#666666"
     borderopacity="1.0"
     inkscape:pageopacity="0.0"
     inkscape:pageshadow="2"
     inkscape:zoom="1.02"
     inkscape:cx="233.8283"
     inkscape:cy="268.17926"
     inkscape:document-units="px"
     inkscape:current-layer="g5166"
     showgrid="false"
     inkscape:window-width="1600"
     inkscape:window-height="837"
     inkscape:window-x="-8"
     inkscape:window-y="-8"
     inkscape:window-maximized="1">
    <inkscape:grid
       type="xygrid"
       id="grid3997"
       empspacing="5"
       visible="true"
       enabled="true"
       snapvisiblegridlinesonly="true" />
  </sodipodi:namedview>
  <metadata
     id="metadata12571">
    <rdf:RDF>
      <cc:Work
         rdf:about="">
        <dc:format>image/svg+xml</dc:format>
        <dc:type
           rdf:resource="http://purl.org/dc/dcmitype/StillImage" />
        <dc:title></dc:title>
      </cc:Work>
    </rdf:RDF>
  </metadata>
  <g
     inkscape:label="Layer 1"
     inkscape:groupmode="layer"
     id="layer1"
     transform="translate(0,-702.36218)">
    <g
       id="g5166"
       transform="matrix(1.1046613,0,0,1.1381556,-28.790437,-7.3292612)">
      <path
         inkscape:connector-curvature="0"
         id="path4309-60"
         style="fill:#cccccc;fill-opacity:1;fill-rule:nonzero;stroke:none"
         d="m 226.31231,885.76529 -131.40927,0 c -16.0117,0 -29.10646,-17.54917 -29.10646,-38.98667 l 0,-157.78317 c 0,-21.43752 13.09476,-38.98669 29.10646,-38.98669 l 131.40927,0 c 16.0117,0 29.10648,17.54917 29.10648,38.98669 l 0,157.78317 c 0,21.4375 -13.09478,38.98667 -29.10648,38.98667" />
      <path
         inkscape:connector-curvature="0"
         id="path4317-48"
         style="fill:#ffff66;fill-opacity:1;fill-rule:nonzero;stroke:none"
         d="m 90.00533,687.63051 -25.4302,13.09551 c -7.06514,3.64125 -10.88144,15.47349 -8.49801,26.29138 2.39051,10.81792 10.11532,16.6966 17.18046,13.06622 l 101.35196,-52.20926 -84.60421,-0.24385 z" />
      <path
         inkscape:connector-curvature="0"
         id="path4321-6"
         style="fill:#ffff66;fill-opacity:1;fill-rule:nonzero;stroke:none"
         d="M 189.27748,687.93591 64.22055,754.91178 c -6.78841,3.63021 -10.46575,15.46231 -8.17339,26.28027 2.29921,10.82883 9.73576,16.70779 16.52416,13.0667 l 175.0865,-93.75967 c 3.82744,-2.05285 6.61784,-6.74908 7.94826,-12.36245 l -66.3286,-0.20072 z" />
      <path
         inkscape:connector-curvature="0"
         id="path4325-50"
         style="fill:#ffff66;fill-opacity:1;fill-rule:nonzero;stroke:none"
         d="M 258.429,753.18304 71.2321,849.92099 c -5.45857,2.82012 -11.43333,-1.73881 -13.27879,-10.13217 l -1.94443,-8.82827 c -1.84547,-8.39337 1.1101,-17.56607 6.56868,-20.38621 L 249.77445,713.8364 c 5.45859,-2.82012 11.43335,1.7388 13.27878,10.13217 l 1.94444,8.82828 c 1.84546,8.39336 -1.11008,17.56606 -6.56867,20.38619" />
      <path
         inkscape:connector-curvature="0"
         id="path4329-9"
         style="fill:#ffff66;fill-opacity:1;fill-rule:nonzero;stroke:none"
         d="m 72.10456,870.71763 68.72634,0.20022 115.85498,-59.86405 c 6.86572,-3.54246 10.58495,-15.08845 8.26648,-25.64481 -2.32539,-10.56694 -9.84664,-16.30367 -16.7124,-12.7506 L 71.15924,864.15185 c -0.80043,0.42178 -1.55256,0.96034 -2.27019,1.58379 2.15288,3.855 2.15288,3.39909 3.21551,4.98199" />
      <path
         inkscape:connector-curvature="0"
         id="path4333-0"
         style="fill:#ffff66;fill-opacity:1;fill-rule:nonzero;stroke:none"
         d="m 246.42714,871.22572 9.89993,-5.04559 c 7.14519,-3.63015 11.01192,-15.46226 8.59432,-26.29111 -2.41761,-10.81798 -10.22997,-16.69694 -17.37513,-13.05591 l -86.68195,44.146 85.56283,0.24661 z" />
      <path
         sodipodi:nodetypes="ccssc"
         inkscape:connector-curvature="0"
         id="path4341-0"
         style="fill:#808080;fill-opacity:1;fill-rule:nonzero;stroke:none"
         d="m 249.32582,870.67565 -176.98738,0 c 0,0 1.9003,4.76007 8.02589,9.558 24.68059,19.33129 95.80815,61.05986 163.21991,-2.21583 2.23716,-2.0999 3.51227,-5.00791 5.74158,-7.34217" />
      <path
         inkscape:connector-curvature="0"
         id="path4353-61"
         style="fill:#808080;fill-opacity:1;fill-rule:nonzero;stroke:none"
         d="m 260.9378,688.12878 -200.50807,0 c -5.58871,0 -10.16254,-6.08561 -10.16254,-13.52158 l 0,-17.97406 c 0,-7.43595 4.57383,-13.52158 10.16254,-13.52158 l 200.50807,0 c 5.58872,0 10.16254,6.08563 10.16254,13.52158 l 0,17.97406 c 0,7.43597 -4.57382,13.52158 -10.16254,13.52158" />
    </g>
  </g>
</svg>
